<?xml version="1.0" encoding="UTF-8"?><svg id="a" xmlns="http://www.w3.org/2000/svg" viewBox="0 0 120 120"><path d="M111.03,39.16c-.73-.68-1.42-.62-2.35-.58-6.79.25-15.71,3.89-22.27,4.09-1.48.05-2.21-.58-2.11-2.1.3-4.38,4.55-11.82,5.06-16.42.29-2.6-1.35-3.89-3.84-2.86-3.97,1.64-10.02,8.43-13.87,9.99-1.97.8-2.33-.36-2.97-1.86-1.45-3.36-5.9-19.61-7.26-20.97-1.27-1.27-3.4-.87-4.18.76-2.99,7.07-4.63,15.82-7.92,22.66-.97,2.02-1.86,2.6-4.01,1.45-4.01-2.15-9.57-8.31-13.35-9.96-1.96-.86-3.7.34-3.58,2.47.27,4.96,3.92,12.37,4.37,17.53.13,1.51-.09,2.35-1.82,2.37-6.33.06-15.16-3.03-21.55-2.9-1.88.04-2.96,1.29-2.45,3.14.54,1.96,14.96,12.05,17.43,14.69,1.33,1.42,1.55,2.24-.1,3.48-2.33,1.75-12.68,6.07-13.6,7.77-1.02,1.9.14,3.22,1.94,3.77,2.66.82,15.41,2.21,16.54,3.48.8.9.33,1.54-.05,2.44-1.5,3.49-11.07,17.51-10.93,19.79.12,1.89,2.16,2.9,3.82,2.17,5.89-3.22,11.67-6.8,17.72-9.73,1.78-.86,4.39-2.83,5.16.37,1.06,4.44-.44,12.56.85,16.77.61,1.98,2.89,2.25,4.35.89,3.36-3.13,6.52-11.3,10.03-14.64,1.14-1.09,1.99-1.07,3.24-.22,3.01,2.05,7.51,8.87,10.22,10.32,1.77.95,3.58.03,3.86-1.92.36-2.53-.66-12.22.55-13.62.79-.91,1.61-.58,2.56-.34,5.91,1.45,13.98,6.46,19.66,7.39,2.82.46,4.44-1.41,3.04-4-2.58-4.75-9.22-10.56-12.32-15.38-.55-.85-1.23-1.73-.36-2.67.88-.95,13.52-3.17,15.88-3.99,2.14-.74,3.23-2.89,1.23-4.53-2.35-1.94-13.35-5.19-14.49-6.89-.88-1.32.63-2.25,1.45-3.1,2.24-2.34,16.8-15.01,17.13-16.37.22-.9.03-2.05-.68-2.71ZM78.5,63c-1.2,3.55-6.15,1.75-8.85,2.4h-.28c-.38.29-.82.42-.97.96-.15,3.85-.09,7.7.19,11.56.08,2.25.1,4.53-.33,6.74-.25,1.23-1.12,2.38-2.43,2.6-1.8.31-10.36.26-12.29.02-1.41-.18-2.24-.97-2.71-2.12-.18-.44-.25-.92-.25-1.39v-17.42c-.15-.59-.6-.68-.97-.96h-.28c-3.01-.45-8.61.89-9.08-2.72-.13-1,.24-2,.88-2.77l15.65-18.81c1.27-1.21,3.14-1.38,4.66-.5,1.51.88,11.59,13.23,13.43,15.51,1.46,1.81,4.43,4.45,3.6,6.89Z" style="fill:#555671;"/></svg>