<?xml version="1.0" encoding="UTF-8"?><svg id="a" xmlns="http://www.w3.org/2000/svg" viewBox="0 0 120 120"><rect x="7.57" y="38.22" width="37.96" height="7.96" rx="3.98" ry="3.98" style="fill:#555671;"/><path d="M31.58,59.52h0c0,2.14-1.74,3.88-3.88,3.88H8.91c-2.14,0-3.88-1.74-3.88-3.88h0c0-2.14,1.75-3.89,3.89-3.89h18.77c2.14,0,3.89,1.75,3.89,3.89Z" style="fill:#555671;"/><rect x="5" y="72.84" width="14.03" height="7.95" rx="3.97" ry="3.97" style="fill:#555671;"/><path d="M52.36,111.8l-27.25-32.54c-1.66-1.98-1.66-4.87,0-6.86h0c2.13-2.55,6.06-2.55,8.19,0l27.25,32.54c1.66,1.98,1.66,4.87,0,6.86h0c-2.13,2.55-6.06,2.55-8.19,0Z" style="fill:#555671; opacity:.3;"/><path d="M98.4,65.4l-30.55,36.49c-.84.99-2.19.99-3.02,0l-2.41-2.88c-.18-.09-.42-.1-.67.09l-1.98,2.21s-.42.21-.76-.41l-22.78-27.16s-.25-.45.18-1.09l1.35-1.8s.3-.93-.16-1.48l-2.86-3.42c-.84-1-.84-2.61,0-3.61l30.55-36.49c.83-1,2.18-1,3.02,0l30.09,35.94c.83,1,.83,2.61,0,3.61Z" style="fill:#555671; opacity:.3;"/><path d="M69.94,23.17c-1.07-1.29-.73-2.73.52-3.78,7.13-5.95,29.18-22.84,40.57-9.22,11.03,13.18-4.03,42.85-7.93,49.5-.44.76-1.35.86-1.9.21l-31.26-36.71Z" style="fill:#555671; opacity:.3;"/></svg>