<?xml version="1.0" encoding="UTF-8"?><svg id="a" xmlns="http://www.w3.org/2000/svg" viewBox="0 0 120 120"><path d="M64.65,52.41l13.66.02s3.11,1.18,1.67,3.9l-27.85,33.43s-3.28,2.75-3.9-1.44l7.44-23.91-13.89-.03s-2.6-.56-1.91-3.32,29.25-34.49,29.25-34.49c0,0,3.33-.77,3.09,2.26-.24,3.03-7.55,23.58-7.55,23.58Z" style="fill:#555671; opacity:.3;"/><path d="M37.27,91.77s2.01,5.47,10.78,5.27c8.77-.2,10.66-4.47,10.66-4.47l24.03-28.45-.12,40.64s-.49,2.23-2.86,2.65h-39.87s-2.68-.85-2.67-2.69.05-12.94.05-12.94Z" style="fill:#555671;"/><path d="M92.53,21.76c0-7.24-7.93-9.21-7.93-9.21h-12.24l.03-5.75c0-3.34-3.85-3.83-3.85-3.83l-17.74.03c-2.56-.04-3.34,3.42-3.34,3.42v6.14s-11.52.05-11.52.05c-7.32,0-8.48,8.51-8.48,8.51v86.64c0,8.26,8.63,9.27,8.63,9.27h47c8.74.01,9.44-8.64,9.44-8.64V21.76ZM82.75,110.25l-45.75-.02s-2.6-.26-2.6-2.71V22.04s.39-2.54,3.26-2.54h44.9s2.84.12,2.88,2.48v86s-.5,2.28-2.7,2.27Z" style="fill:#555671;"/></svg>