<?xml version="1.0" encoding="UTF-8"?><svg id="a" xmlns="http://www.w3.org/2000/svg" viewBox="0 0 120 120"><path d="M66.71,46.77l19.09.02s4.34,1.64,2.33,5.45l-38.93,46.73s-4.58,3.85-5.45-2.01l10.4-33.42-19.41-.04s-3.63-.78-2.67-4.64S72.95,10.66,72.95,10.66c0,0,4.65-1.08,4.32,3.16-.34,4.24-10.55,32.96-10.55,32.96Z" style="fill:#555671; opacity:.3;"/><path d="M108.7,55.82l-5.31-5.66c-.07-.19-.79-4.28,3.25-3.75l.55.16c.11.03.21.09.29.17l10.07,9.87s1.1,1.11,1.11,2.58-1.14,2.06-1.14,2.06l-9.98,10.06s-2.64.48-3.52-.72-.58-3.21-.58-3.21l5.22-5.5-14.98-.04s-2.21-.76-2.22-3,2.38-3.02,2.38-3.02h14.84Z" style="fill:#555671;"/><path d="M11.68,55.67l5.31-5.66c.07-.19.79-4.28-3.25-3.75l-.55.16c-.11.03-.21.09-.29.17l-10.07,9.87s-1.1,1.11-1.11,2.58,1.14,2.06,1.14,2.06l9.98,10.06s2.64.48,3.52-.72.58-3.21.58-3.21l-5.22-5.5,14.98-.04s2.21-.76,2.22-3-2.38-3.02-2.38-3.02h-14.84Z" style="fill:#555671;"/></svg>