<?xml version="1.0" encoding="UTF-8"?><svg id="a" xmlns="http://www.w3.org/2000/svg" viewBox="0 0 120 120"><path d="M69.92,91.37l-.65-4.29c7.98-3.26,13.05-11.68,13.91-20.63,1.04-10.92-5.39-21.56-14.83-25.45-17.54-7.23-35.49,9.12-31.44,28.83,1.59,7.74,6.32,14.62,13.44,17.25-.11,1.48-.59,2.93-.52,4.43-8.67-2.82-14.85-10.79-16.94-20.11-2.95-13.15,2.52-26.47,13.5-32.91,21.62-12.69,46.84,8.8,39.96,34.24-2.3,8.51-8.47,15.99-16.43,18.64Z" style="fill:#555671;"/><path d="M59.57,61.95c.54-.12.97.4,1.38.76,2.38,2.15,4.9,5.28,7.16,7.69.96,1.02,3.68,3.25,3.82,4.66.38,3.6-4.32,2.29-6.36,2.52-1.05.12-1.08.24-.99,1.35.38,4.49,2.31,9.6,2.76,14.13.14,1.4.1,1.86-1.13,2.44-3.22,1.51-8.98,1.31-12.29.18-.95-.32-1.98-.57-1.79-1.92.65-4.66,2.19-9.5,2.76-14.13.05-.43.25-1.55-.1-1.83-.57-.45-4.05-.13-5.02-.21-2.32-.2-2.89-2.29-1.34-4.03l10.64-11.28c.14-.14.31-.29.5-.33Z" style="fill:#555671; opacity:.5;"/><path d="M97.02,64.33c0,22.06-16.72,39.95-37.35,39.95s-37.35-17.89-37.35-39.95S39.04,24.38,59.67,24.38s37.35,17.89,37.35,39.95Z" style="fill:none; stroke:#555671; stroke-miterlimit:10; stroke-width:4px;"/><g style="opacity:.5;"><path d="M7.57,50.35l5.87,2.2c1.01.38,2.12-.19,2.47-1.28h0c.35-1.08-.18-2.27-1.19-2.65l-5.87-2.2c-1.01-.38-2.12.19-2.47,1.28h0c-.35,1.08.18,2.27,1.19,2.65Z" style="fill:#555671;"/><path d="M24.73,29.76l-4.62-4.46c-.8-.77-2.02-.7-2.74.15h0c-.72.85-.65,2.17.14,2.94l4.62,4.46c.8.77,2.02.7,2.74-.15h0c.72-.85.65-2.17-.14-2.94Z" style="fill:#555671;"/><path d="M39.01,11.4c-.43-1.05-1.57-1.54-2.55-1.08h0c-.98.46-1.43,1.68-1.01,2.73l2.47,6.12c.43,1.05,1.57,1.54,2.55,1.08h0c.98-.46,1.43-1.68,1.01-2.73l-2.47-6.12Z" style="fill:#555671;"/><path d="M59.72,5h0c-1.07.01-1.93.95-1.92,2.1l.06,6.67c0,1.15.89,2.07,1.96,2.06h0c1.07-.01,1.93-.95,1.92-2.1l-.06-6.67c0-1.15-.89-2.07-1.96-2.06Z" style="fill:#555671;"/><path d="M83.03,10.26h0c-.98-.46-2.12.01-2.56,1.06l-2.51,6.1c-.43,1.05.01,2.28.99,2.74h0c.98.46,2.12-.01,2.56-1.06l2.51-6.1c.43-1.05-.01-2.28-.99-2.74Z" style="fill:#555671;"/><path d="M102.03,28.45c.8-.76.88-2.07.18-2.93h0c-.71-.86-1.93-.95-2.73-.19l-4.67,4.4c-.8.76-.88,2.07-.18,2.93h0c.71.86,1.93.95,2.73.19l4.67-4.4Z" style="fill:#555671;"/><path d="M103.6,51.12c.32,1.1,1.4,1.71,2.42,1.37l5.94-1.97c1.02-.34,1.59-1.5,1.28-2.6h0c-.32-1.1-1.4-1.71-2.42-1.37l-5.94,1.97c-1.02.34-1.59,1.5-1.28,2.6h0Z" style="fill:#555671;"/><path d="M113.01,70.78l-6.16-.85c-1.06-.15-2.03.66-2.17,1.8h0c-.14,1.14.61,2.18,1.68,2.33l6.16.85c1.06.15,2.03-.66,2.17-1.8h0c.14-1.14-.61-2.18-1.68-2.33Z" style="fill:#555671;"/><path d="M105.53,93.89l-5.18-3.69c-.89-.64-2.09-.38-2.69.58h0c-.59.96-.35,2.25.54,2.88l5.18,3.69c.89.64,2.09.38,2.69-.58h0c.59-.96.35-2.25-.54-2.88Z" style="fill:#555671;"/><path d="M35.74,105.47h0c-.9-.62-2.1-.35-2.68.61l-3.38,5.59c-.58.96-.33,2.25.57,2.87h0c.9.62,2.1.35,2.68-.61l3.38-5.59c.58-.96.33-2.25-.57-2.87Z" style="fill:#555671;"/><path d="M21.8,90.79c-.6-.95-1.8-1.21-2.69-.57l-5.16,3.72c-.89.64-1.12,1.93-.53,2.88h0c.6.95,1.8,1.21,2.69.57l5.16-3.72c.89-.64,1.12-1.93.53-2.88h0Z" style="fill:#555671;"/><path d="M14.71,71.62h0c-.15-1.14-1.14-1.92-2.2-1.76l-6.15.96c-1.06.17-1.79,1.22-1.64,2.36h0c.15,1.14,1.14,1.92,2.2,1.76l6.15-.96c1.06-.17,1.79-1.22,1.64-2.36Z" style="fill:#555671;"/><path d="M86.57,106.15c-.56-.98-1.75-1.29-2.66-.69h0c-.91.6-1.2,1.88-.65,2.86l3.23,5.69c.56.98,1.75,1.29,2.66.69h0c.91-.6,1.2-1.88.65-2.86l-3.23-5.69Z" style="fill:#555671;"/></g><path d="M59.8,57.2c-2.61,0-11,14.51-13.53,13.76-3.05-2.09-2.9-22.54,13.4-22.54s16.9,19.74,13.41,22.62c-1.98.44-10.5-13.11-13.28-13.84Z" style="fill:#555671;"/></svg>