<?xml version="1.0" encoding="UTF-8"?>
<svg id="Layer_1" xmlns="http://www.w3.org/2000/svg" baseProfile="tiny" version="1.2" viewBox="0 0 120 120">
  <!-- Generator: Adobe Illustrator 29.6.1, SVG Export Plug-In . SVG Version: 2.1.1 Build 9)  -->
  <path d="M98.2,43.2c-.6-1.5-2.1-2.5-3.8-2.5h-19.3l17.3-29.6c.7-1.3.8-2.9,0-4.1-.7-1.3-2.1-2.1-3.6-2.1h-33c-1.5,0-2.9.8-3.6,2.1l-30.3,55.1c-.7,1.3-.7,2.8,0,4.1.7,1.3,2.1,2,3.6,2h18.7l-17,41.1c-.8,1.8-.1,4,1.6,5,.7.4,1.5.7,2.3.7s2.2-.4,3-1.3l63.3-66.1c1.1-1.2,1.5-3,.8-4.5Z" fill="#e7c4fd" stroke="#795384" stroke-linecap="round" stroke-linejoin="round" stroke-width="4"/>
</svg>