<?xml version="1.0" encoding="utf-8"?>
<svg xmlns="http://www.w3.org/2000/svg" viewBox="0 0 24 24" width="100" height="100">
  <path d="M21,22c-0.256,0-0.512-0.098-0.707-0.293l-18-18c-0.391-0.391-0.391-1.023,0-1.414s1.023-0.391,1.414,0l18,18 c0.391,0.391,0.391,1.023,0,1.414C21.512,21.902,21.256,22,21,22z" fill="#555671" />
  <path d="M16.667,15.489c3.589-2.578,4.408-7.576,1.831-11.165S10.922-0.084,7.333,2.494S2.925,10.07,5.502,13.658 c0.507,0.706,1.125,1.324,1.831,1.831L7.976,18h8.048L16.667,15.489z" opacity=".35" fill="#555671" />
  <path d="M15.577,19.744L16.024,18H7.976l0.446,1.744C8.762,21.071,9.958,22,11.328,22h1.343C14.041,22,15.237,21.071,15.577,19.744 z" fill="#555671" />
</svg>