<?xml version="1.0" encoding="UTF-8"?><svg id="a" xmlns="http://www.w3.org/2000/svg" viewBox="0 0 100 100"><path d="M65.65,54.48c.14.15,1.49-.87,1.75-.7,2.84,3.54,4.48,8.1,4.26,12.67-.03.53-.26,1.24-.26,1.76,0,.89.55,2.13.63,3.14.21,2.65-.37,4.71-1.95,6.82-.45.61-1.45,1.45-1.73,2.03-.34.69-.48,1.57-.89,2.37-1.31,2.6-2.92,3.46-4.71,5.45-.47.52-.84,1.17-1.31,1.7-2.88,3.21-6.92,5.03-11.29,4.89-.54-.02-1.48-.27-1.99-.22-.41.04-1.93.87-2.55,1.06-3.77,1.18-7.6.72-11.02-1.2-.73-.41-1.7-1.31-2.31-1.58s-1.54-.33-2.22-.54c-3.96-1.24-6.69-3.78-8.74-7.3-.28-.48-.45-1.14-.7-1.55-.39-.64-1.43-1.55-1.96-2.3-1.65-2.3-2.87-5.27-3.04-8.12-.09-1.47.3-3.11.12-4.51-.23-1.78-1.46-2.8-1.06-4.97.5-2.75,3.66-4.23,4.27-6.63.12-.48.12-1.04.24-1.51,1.05-4.07,3.63-7.11,6.77-9.77.49,1.06,1.33,1.92,2.19,2.7,1.67,1.5,4.21,3.3,6.1,4.55,1.67,1.1,2.39,1.52,4.46.87,3.53-1.1,11.16-4.26,14.12-6.31,2.13-1.47,2.4-3.17,2.96-5.57,2.41.94,4.67,2.34,6.58,4.07.76.68,3.49,3.55,3.63,4.4.2,1.22-.3,3.05-.37,4.32ZM21.4,56.36c-.69,2.68-.66,5.54.95,7.89,2.31,3.38,6.6,3.03,7.89-.87l-8.84-7.01ZM54.74,56.36l-14.17,7.27c3.04,5.65,10.95,4.27,13.35-1.26.26-.61.82-2.35.82-2.94v-3.07ZM22.52,71.65c-.2,0-.12.29-.13.44-.05.94.04,1.89,0,2.82.06-.02.1-.13.12-.13.05,0,.11,0,.12.06.15,2.84,1.21,5.54,2.64,7.96.17.11,2.03-3.05,2.27-3.3.09-.09.11-.25.29-.21l4.14,5.01,3.13-2.97,5.25,4.1,3.09-4.01h.18s3.03,2.24,3.03,2.24l.42.14,1.44-3.76,4.51,2.25c.36-4.12-.97-8.42-4.41-10.89l-5.26,5.24-3.99-4.01-5.63,4.64-5.27-5.51-2.63,3.63-3.32-3.76Z" style="fill:#6a6d6c; opacity:.3;"/><path d="M86.21,43.89c-1.14,4.22.64,7.88-1.24,12.43-1.39,3.37-5.46,6.1-5.66,9.51-.09,1.54.63,3.16,2.44,2.81.59-.11,1.75-1.59,2.14-.38.56,1.72-1.59,5.62-2.6,7.07-2.66,3.8-5.23,5.05-8.79,7.63-2.61,1.89-4.01,4.79-6.98,6.12,2.11-1.87,3.64-3.96,4.82-6.52.2-.42.19-.86.46-1.29.25-.4.75-.72,1.05-1.08,2.93-3.66,3.49-7.45,2.19-11.97l.25-2.19v-1.38l-.43-3.14c-.67-3.28-2.1-6.28-4.08-8.96-.21-.28-.96-.98-1.06-1.2-.16-.35-.08-1.5-.25-2.13-.76-2.75-5.92-6.99-8.38-8.42-1.22-.71-2.51-1.25-3.78-1.85.12-2.12,1.54-6.25-.57-7.71-1.74-1.21-3.25.12-4.62,1.13-1.42,1.05-2.71,2.28-4.15,3.31-.43-1.59-.81-3.21-1.29-4.79-.49-1.6-1.61-5.72-3.01-6.52-1.61-.91-3.11-.12-4.15,1.16-2.09,2.59-3.51,6.03-5.4,8.76-.6-1.02-1.5-1.89-2.69-2.14,1.12-3.09,1.65-6.51,3.32-9.4,2.41-4.19,7.39-7.55,11.76-9.42.53-.23,1.99-.87,2.46-.93.73-.09,1.36.67.99,1.37-.28.52-1.72,1.73-2.24,2.4-.5.65-.97,1.35-1.28,2.1-1.82,4.49,1.68,8.06,6.12,5.75,4.23-2.2,5.29-7.17,9.45-9.85,3.89-2.5,6.87-2.2,11.19-2.6,4.33-.39,5.12-2.87,7.54-5.63.5-.57,1.11-1.33,1.95-1.07,1.25.39-.06,1.59-.39,2.13-1.36,2.27-1.02,4.79-3.07,7.09-2.12,2.37-4.33,2.47-6.99,3.54-4.51,1.81-3.04,5.07-4.35,8.56-.9,2.39-3.36,3.98-2.24,6.88,1.04,2.69,4.64,2.56,6.57.96,2.03-1.68,1.83-3.81,2.8-5.98.89-1.99,2.93-3.88,4.95-4.7.76-.31,2.32-.87,2.09.58-.05.29-1.08,1.76-1.31,2.33-.35.86-.49,1.73-.69,2.63h0c.04,1.89.1,4.02,0,5.89-.12,2.32-.69,4.28-2.03,6.18-.9,1.28-2.14,2.24-2.82,3.69-2.68,5.72,4.5,9.57,7.33,4.58,1.17-2.06,1.09-5.79,4.07-6.71,1.5-.46.77.72.6,1.35Z" style="fill:#6a6d6c;"/><path d="M54.24,33.67c.21.21-.66,5.2-.79,5.92-.24,1.32-.6,4.21-1.53,5.12s-4.09,2.21-5.37,2.78c-2.39,1.07-5,2.15-7.45,3.08-.48.18-1.68.72-2.09.65-.28-.04-1.63-1.04-1.99-1.28-1.39-.93-3-2.05-4.28-3.11-.79-.66-2.24-1.72-2.2-2.81.09-2.22.39-6.28.92-8.37.21-.82.34-1.04,1.03-.35,1.09,1.08,1.74,2.77,2.64,3.88.09.11.28.37.43.26.1-.07.93-1.9,1.11-2.21,1.6-2.87,3.91-7.59,5.94-9.98.23-.27.4-.65.8-.35.54.41,2.5,7.45,2.8,8.61.37,1.43.59,3.3,1.02,4.62.04.13.04.23.18.32l8.27-6.64.57-.12Z" style="fill:#6a6d6c; opacity:.3;"/><path d="M26.54,37.24c-.34,1.63-.19,3.33-.57,4.94-3.73,2.74-7.32,6.34-8.89,10.79-.35.99-.55,2.91-.89,3.62-.17.35-1.62,1.65-2.04,2.22-1.24,1.69-2.36,3.84-2.15,5.99.14,1.45,1.07,2.99,1.24,4.27.16,1.18-.21,3.02-.12,4.38.07.98.37,1.97.51,2.94l-4.16-5.81c-1.59-2.7-1.93-5.98-1.05-8.99,1.37-4.67,5.59-6.3,5.08-11.97-.24-2.62-2.04-4.57-2.38-7.21-.12-.96-.12-1.55,0-2.51.37-3.07,2.2-6.41,4.58-8.39.46-.38,1.03-1.01,1.63-.64.79.48-.05,1.38-.26,2.02-2.29,7.04,3.06,10.24,8.33,5.45l1.13-1.13Z" style="fill:#6a6d6c;"/></svg>