<?xml version="1.0" encoding="utf-8"?>
<svg xmlns="http://www.w3.org/2000/svg" viewBox="0 0 48 48" width="100" height="100">
  <path d="M12.5 5C10.585045 5 9 6.5850452 9 8.5L9 16L8.5 16L3.5 16 A 1.50015 1.50015 0 0 0 2 17.5L2 19.5 A 1.50015 1.50015 0 0 0 3.5 21L4 21L4 27L3.5 27 A 1.50015 1.50015 0 0 0 2 28.5L2 30.5 A 1.50015 1.50015 0 0 0 3.5 32L8.5 32L9 32L9 39.5C9 41.414955 10.585045 43 12.5 43L14.185547 43C16.704814 43 19.12334 41.997754 20.904297 40.216797L28.388672 32.732422C28.857638 32.26283 29.492045 32 30.15625 32L36.640625 32C41.312707 32 45.460415 28.948412 46.927734 24.466797 A 1.50015 1.50015 0 0 0 46.927734 23.533203C45.459355 19.051875 41.311869 16 36.640625 16L30.15625 16C29.494363 16 28.857715 15.736621 28.388672 15.267578L20.904297 7.7832031C19.12334 6.002246 16.704814 5 14.185547 5L12.5 5 z M 12.5 8L14.185547 8C15.91028 8 17.56416 8.685254 18.783203 9.9042969L26.267578 17.388672C27.298535 18.419629 28.698137 19 30.15625 19L36.640625 19C39.83368 19 42.63294 20.999929 43.837891 24C42.633768 26.999823 39.834782 29 36.640625 29L30.15625 29C28.698455 29 27.298612 29.57892 26.267578 30.611328L18.783203 38.095703C17.56416 39.314746 15.91028 40 14.185547 40L12.5 40C12.204955 40 12 39.795045 12 39.5L12 32L15.5 32 A 1.50015 1.50015 0 1 0 15.5 29L10.746094 29 A 1.50015 1.50015 0 0 0 10.259766 29L8.5 29C7.6535009 29 7 28.346499 7 27.5L7 20.5C7 19.653501 7.6535009 19 8.5 19L10.253906 19 A 1.50015 1.50015 0 0 0 10.740234 19L15.5 19 A 1.50015 1.50015 0 1 0 15.5 16L12 16L12 8.5C12 8.2049548 12.204955 8 12.5 8 z M 37.476562 20.978516 A 1.50015 1.50015 0 0 0 36 22.5L36 25.5 A 1.50015 1.50015 0 1 0 39 25.5L39 22.5 A 1.50015 1.50015 0 0 0 37.476562 20.978516 z" fill="#555671" />
</svg>