<?xml version="1.0" encoding="UTF-8"?><svg id="a" xmlns="http://www.w3.org/2000/svg" viewBox="0 0 100 100"><path d="M67.26,18.53c-.06-.68-.28-1.26-.85-1.66-.83-.59-3.93-.99-5.16-1.32-2.14-.58-4.31-1.4-6.3-2.38-1.01-.49-3.41-2.17-4.21-2.37-.32-.08-.86-.09-1.18-.03-.66.14-2.73,1.6-3.52,2.02-2.28,1.19-4.91,2.2-7.41,2.84-1.38.35-3.06.49-4.33.9-.81.26-1.32.85-1.44,1.7.17,3.4-.33,7.08.24,10.43,1.29,7.47,7.59,12.95,13.91,16.42.49.27,2.57,1.45,2.94,1.45.32,0,.71-.23,1-.37,7.22-3.39,14.85-9.67,16.09-18,.37-2.51.45-7.07.23-9.61ZM59.26,28.41c-.93,2.17-5.68,6.83-7.64,8.37-1.29,1.02-1.67,1.14-3.03.1-2.06-1.57-7.18-6.64-7.95-8.99-1.16-3.55.79-7.71,4.81-7.68.82,0,1.58.2,2.32.55.52.24,2.04,1.47,2.29,1.48.36.02,1.25-.83,1.65-1.07,5.2-3.1,9.76,2.06,7.55,7.23Z" style="fill:#6a6d6c;"/><path d="M49.38,57.33c.68.42,1.88-.16,1.88-.83v-6.95h-2.51v7.06c0,.11.5.65.63.73Z" style="fill:#6a6d6c; opacity:.3;"/><path d="M76.6,54.89c-.72-.46-2.66-.94-3.57-1.24-6.03-2-12.11-3.88-18.17-5.78-1.76-.32-2.57,1.8-1.07,2.74l16.66,5.41.15.22-20.56,7c-6.88-2.13-13.6-4.93-20.49-7-.11-.03-.34-.04-.15-.21l16.55-5.36c1.98-.79.9-3.34-1.1-2.77l-21.08,6.85c-.93.33-1.21,1.15-1.28,2.07v26.89c.07.74.28,1.57,1.02,1.91l25.81,10.06.95.11c8.27-3.26,16.73-6.16,24.94-9.58,1.16-.48,2.17-.7,2.31-2.19v-27.51c-.03-.62-.39-1.27-.91-1.6ZM48.43,91.89l-22.59-8.78v-23.22l22.59,28.6v3.4ZM48.43,83.21l-18.62-23.53,18.62,6.38v17.15ZM51.57,66.06l18.62-6.27-18.62,23.53v-17.26ZM74.26,83.11l-22.69,8.78v-3.29c7.58-9.59,15.04-19.28,22.69-28.81v23.32Z" style="fill:#6a6d6c; opacity:.3;"/></svg>