<?xml version="1.0" encoding="UTF-8"?><svg id="a" xmlns="http://www.w3.org/2000/svg" viewBox="0 0 100 100"><path d="M64.2,30.26c-.19-2.01-2.53-1.65-3.98-1.86-2.08-.31-4.15-.92-6.06-1.8-1-.46-3.34-2.05-4.25-1.98-.77.06-1.84.92-2.56,1.27-2.38,1.18-4.83,2.13-7.49,2.5-1.27.18-3.69-.09-3.96,1.65-.3,1.92.21,4.51-.01,6.51-.42,7.5,6.12,14.49,12.86,16.78,1.61.54,1.98.29,3.47-.35,5.31-2.29,10.78-7.23,11.71-13.21.37-2.37.49-7.13.26-9.52ZM58.75,35.25c-3.08,2.69-5.87,6.42-8.97,8.99-.96.79-1.92,1.02-2.92.11-1.07-.97-3.54-3.4-4.38-4.49-1.24-1.61.55-3.57,2.19-2.31,1.24.96,2.32,2.63,3.63,3.53l7.93-7.91c.27-.24.62-.44.99-.48,1.29-.14,2.32,1.43,1.53,2.55Z" style="fill:#555671; opacity:.3;"/><path d="M52.29,6.35c-6.22-2.05-11.46,4.76-7.72,10.19,1.03,1.5,2.36,2.19,4.02,2.83v2.75c1-.36,1.93-.38,2.92,0v-2.75c2.62-.98,4.67-2.77,5.13-5.64.51-3.14-1.3-6.36-4.35-7.37ZM50.28,16.36c-2.23.14-4.06-1.7-3.92-3.92.12-1.84,1.61-3.33,3.44-3.44,2.23-.14,4.06,1.7,3.92,3.92-.12,1.84-1.61,3.33-3.44,3.44Z" style="fill:#555671;"/><path d="M70.68,65.66c-.23-.71-.57-.86-1.21-1.15-2.4-1.12-5.46-1.92-8-2.89-3.25-1.24-6.47-2.59-9.71-3.87-.51-.15-.12-1.44-.25-1.6-.99.25-1.93.29-2.92,0-.07.42.18,1.31-.18,1.56-6.07,2.63-12.38,4.67-18.52,7.08-.33.39-.61.86-.62,1.4.06,6.31-.26,12.62-.05,18.92.3.99,1.02,1.14,1.86,1.51,5.42,2.39,12.12,5.29,17.71,7.1,1.58.51,1.62.32,3.12-.19,6.03-2.08,11.94-4.99,17.93-7.22.52-.24.92-.66.99-1.26-.1-6.46.19-12.96-.15-19.39ZM48.71,74.77v11.45l-6.06-7.58,6.06-3.87ZM40.91,76.34l-5.68-7.18,10.55,4.04-4.87,3.13ZM48.37,60.4l-1.23,10.44-13.02-5.16,14.26-5.28ZM31.75,69.27l6.96,8.59-6.96,4.44v-13.02ZM33.1,84.71l7.34-4.64,8.27,10.25.11.62-15.72-6.23ZM49.61,71.67l1.45-11.71,14.82,5.95c-.18,0-.35.05-.51.11-5.02,1.88-9.98,3.97-14.98,5.91-.2.08-.7-.04-.77-.25ZM64.99,69.11l-13.59,17.12v-11.73l13.59-5.39ZM68.35,84.15l-.26.19-16.64,6.6-.17-.17,17.07-21.61v14.99Z" style="fill:#555671;"/></svg>