<?xml version="1.0" encoding="utf-8"?>
<svg xmlns="http://www.w3.org/2000/svg" viewBox="0 0 24 24" width="60" height="60">
  <circle cx="9" cy="15" r="4" fill="#6A6D6C" />
  <path d="M21,9c-0.148,0-0.286,0.036-0.412,0.094L20.585,9.09l-4.497,2.318l5.755-7.872l-0.013-0.012C21.929,3.369,22,3.197,22,3 c0-0.552-0.448-1-1-1c-0.221,0-0.415,0.086-0.58,0.207l-0.013-0.012l-8.433,6.167l2.884-4.848l-0.013-0.011 C14.934,3.353,15,3.188,15,3c0-0.552-0.448-1-1-1c-0.245,0-0.461,0.098-0.635,0.245l-0.01-0.008L4.57,9.581l0.002,0 C3.002,10.864,2,12.815,2,15c0,3.866,3.134,7,7,7c1.953,0,3.717-0.801,4.987-2.091l0,0.003l0.039-0.046 c0.221-0.228,0.424-0.473,0.612-0.729l7.129-8.496l-0.008-0.01C21.903,10.457,22,10.243,22,10C22,9.448,21.552,9,21,9z" opacity=".35" fill="#6A6D6C" />
</svg>