<?xml version="1.0" encoding="utf-8"?>
<svg xmlns="http://www.w3.org/2000/svg" viewBox="0 0 48 48" width="100" height="100">
  <path d="M39.5 6 A 1.5 1.5 0 0 0 39.5 9 A 1.5 1.5 0 0 0 39.5 6 z M 28.5 8C28.11625 8 27.732453 8.1464531 27.439453 8.4394531L20.439453 15.439453C19.853453 16.025453 19.853453 16.974547 20.439453 17.560547C20.731453 17.853547 21.116 18 21.5 18C21.884 18 22.267547 17.853547 22.560547 17.560547L29.560547 10.560547C30.146547 9.9745469 30.146547 9.0254531 29.560547 8.4394531C29.267547 8.1464531 28.88375 8 28.5 8 z M 36.5 9C36.11625 9 35.732453 9.1464531 35.439453 9.4394531L26.439453 18.439453C25.853453 19.024453 25.854453 19.974547 26.439453 20.560547C26.732453 20.853547 27.116 21 27.5 21C27.884 21 28.267547 20.853547 28.560547 20.560547L37.560547 11.560547C38.146547 10.974547 38.146547 10.025453 37.560547 9.4394531C37.267547 9.1464531 36.88375 9 36.5 9 z M 14.5 16 A 1.5 1.5 0 0 0 14.5 19 A 1.5 1.5 0 0 0 14.5 16 z M 37.5 17C37.116 16.999875 36.732453 17.146953 36.439453 17.439453L29.439453 24.439453C28.853453 25.025453 28.853453 25.974547 29.439453 26.560547C29.732453 26.854547 30.116 27 30.5 27C30.884 27 31.267547 26.853547 31.560547 26.560547L38.560547 19.560547C39.146547 18.974547 39.146547 18.025453 38.560547 17.439453C38.267547 17.146453 37.884 17.000125 37.5 17 z M 10.708984 19.720703C10.326359 19.688578 9.9322344 19.802359 9.6152344 20.068359C6.3982344 22.785359 4.6917812 26.922812 5.0507812 31.132812C5.5907813 37.488813 10.804688 42.579609 17.179688 42.974609C17.446687 42.991609 17.711562 42.998047 17.976562 42.998047C22.596563 42.998047 26.829063 40.504938 29.414062 36.210938C29.840062 35.502937 29.610391 34.580344 28.900391 34.152344C28.191391 33.727344 27.268797 33.953063 26.841797 34.664062C24.695797 38.227063 21.149281 40.230469 17.363281 39.980469C12.462281 39.677469 8.4531094 35.764906 8.0371094 30.878906C7.7581094 27.587906 9.0387812 24.482328 11.550781 22.361328C12.183781 21.826328 12.262516 20.881047 11.728516 20.248047C11.462016 19.931547 11.091609 19.752828 10.708984 19.720703 z M 18.5 22C14.364 22 11 25.364 11 29.5C11 33.636 14.364 37 18.5 37C22.636 37 26 33.636 26 29.5C26 25.364 22.636 22 18.5 22 z M 15.5 25C16.328 25 17 25.672 17 26.5C17 27.328 16.328 28 15.5 28C14.672 28 14 27.328 14 26.5C14 25.672 14.672 25 15.5 25 z M 22.5 26C23.328 26 24 26.672 24 27.5C24 28.328 23.328 29 22.5 29C21.672 29 21 28.328 21 27.5C21 26.672 21.672 26 22.5 26 z M 18.5 30C19.328 30 20 30.672 20 31.5C20 32.328 19.328 33 18.5 33C17.672 33 17 32.328 17 31.5C17 30.672 17.672 30 18.5 30 z M 30.5 30 A 1.5 1.5 0 0 0 30.5 33 A 1.5 1.5 0 0 0 30.5 30 z" fill="#555671" />
</svg>